<svg width="1730" height="608" viewBox="0 0 1730 608" fill="none" xmlns="http://www.w3.org/2000/svg">
<path d="M845.64 134H750.15V442.37H845.64V134Z" fill="#2E2E2E"/>
<path d="M367.56 404.1V588.73L530.53 359.67V175.04L367.56 404.1Z" fill="#E6FF00"/>
<path d="M1096.1 228.18C1088.42 222.09 1079.9 217.39 1070.58 214.09C1061.26 210.75 1051.67 209.07 1041.84 209.07C1032.01 209.07 1023.81 210.78 1016.01 214.17C1008.21 217.59 1001.48 222.57 995.95 229.18C990.38 235.75 986.04 243.91 982.89 253.7C979.79 263.45 978.23 274.64 978.23 287.22C978.23 299.8 979.74 310.74 982.81 320.42C985.84 330.13 990.25 338.37 996.03 345.18C1001.84 351.99 1008.97 357.16 1017.41 360.7C1025.89 364.24 1035.48 365.99 1046.19 365.99C1052.12 365.99 1057.73 365.51 1063.11 364.6C1068.44 363.64 1073.62 362.21 1078.63 360.26C1083.61 358.31 1088.46 355.88 1093.16 352.97C1097.86 350.07 1102.51 346.68 1107.17 342.78L1127.55 420.68C1113.82 429.36 1099.09 436.04 1083.41 440.74C1067.69 445.44 1050.73 447.83 1032.5 447.83C1009.65 447.83 988.83 444.21 970.12 436.96C951.37 429.72 935.33 419.33 922.03 405.83C908.73 392.3 898.47 375.82 891.22 356.43C883.98 337.04 880.35 315.19 880.35 290.91C880.35 273.83 882.14 257.99 885.68 243.38C889.22 228.77 894.28 215.44 900.89 203.45C907.46 191.43 915.38 180.76 924.65 171.41C933.88 162.1 944.23 154.25 955.66 147.89C967.08 141.52 979.46 136.71 992.76 133.44C1006.1 130.18 1020.07 128.58 1034.67 128.58C1051.43 128.58 1066.83 130.57 1080.76 134.51C1094.73 138.53 1106.91 144.42 1117.34 152.22L1096.08 228.17L1096.1 228.18Z" fill="#2E2E2E"/>
<path d="M1151.43 134H1246.92V242.27C1253.89 236.06 1260.85 229.09 1267.82 221.33C1274.79 213.61 1281.75 205.21 1288.68 196.17C1295.64 187.13 1302.57 177.42 1309.5 167.07C1316.39 156.72 1323.15 145.69 1329.84 133.99H1426.61C1412.88 161.77 1398.87 187.05 1384.69 209.82C1370.48 232.63 1356.59 252.17 1342.97 268.53C1359.17 295.6 1374.69 323.82 1389.54 353.16C1404.39 382.54 1418.2 412.27 1430.94 442.36H1325.26C1320.6 432.53 1316.07 422.98 1311.65 413.74C1307.23 404.47 1302.65 395.27 1297.96 386.16C1293.22 377.04 1288.37 367.89 1283.35 358.69C1278.33 349.54 1273 340.1 1267.35 330.39C1263.73 332.98 1260.26 335.41 1256.92 337.68C1253.58 339.91 1250.27 342.06 1246.93 344.05V442.37H1151.44V134H1151.43Z" fill="#2E2E2E"/>
<path d="M1642.9 134C1661.89 184.79 1678.81 236.18 1693.73 288.21C1708.66 340.2 1720.44 391.59 1729.12 442.38H1630.84C1629.65 434.58 1628.45 426.74 1627.22 418.86C1625.99 410.98 1624.67 403.1 1623.2 395.29H1540.13C1538.7 403.41 1537.34 411.33 1536.11 419.05C1534.88 426.81 1533.68 434.58 1532.53 442.38H1437.04C1445.72 391.59 1457.54 340.2 1472.51 288.21C1487.48 236.18 1504.39 184.79 1523.34 134H1642.91H1642.9ZM1607.36 321.09C1603.7 305.88 1599.72 290.68 1595.38 275.51C1591.04 260.3 1586.54 245.26 1581.89 230.37C1576.96 245.26 1572.34 260.3 1567.96 275.51C1563.62 290.68 1559.64 305.88 1556.02 321.09H1607.37H1607.36Z" fill="#2E2E2E"/>
<path d="M220.94 355.84C220.94 343.1 219.13 331.96 215.53 322.4C211.91 312.89 207.19 304.49 201.34 297.24C195.49 290 188.8 283.79 181.3 278.57C173.78 273.36 166.09 268.82 158.21 264.92C150.35 261.02 142.65 257.52 135.14 254.49C127.64 251.47 120.95 248.52 115.1 245.69C109.25 242.86 104.53 240 100.91 237.01C97.31 234.06 95.5 230.68 95.5 226.94C95.5 224.59 96.04 222.56 97.13 220.85C98.21 219.1 99.76 217.67 101.79 216.51C103.8 215.36 106.29 214.48 109.25 213.88C112.22 213.32 115.56 213.05 119.32 213.05C130.31 213.05 141.13 214.72 151.8 218.15C162.49 221.53 172.96 225.91 183.21 231.28L203.57 157.48C191.27 150.51 178.15 145.26 164.18 141.64C150.23 138.02 134.48 136.23 116.99 136.23C99.5 136.23 82.66 138.5 68.27 143.04C53.86 147.62 41.6 154.11 31.47 162.58C21.36 171.06 13.58 181.29 8.14 193.27C2.73 205.29 0 218.75 0 233.67C0 246.09 1.81 257.07 5.43 266.55C9.05 276.02 13.79 284.3 19.64 291.39C25.51 298.47 32.24 304.6 39.82 309.82C47.42 315.03 55.13 319.61 62.95 323.59C70.75 327.57 78.45 331.11 86.06 334.26C93.64 337.37 100.39 340.39 106.24 343.38C112.09 346.33 116.83 349.39 120.45 352.58C124.07 355.76 125.88 359.39 125.88 363.45C125.88 365.92 125.36 368.07 124.35 369.94C123.34 371.85 121.68 373.4 119.37 374.64C117.04 375.87 114.12 376.79 110.57 377.47C107.03 378.11 102.79 378.43 97.87 378.43C86.15 378.43 73.97 376.48 61.31 372.58C48.65 368.68 36.37 362.95 24.53 355.42L5.42 429.66C18.44 438.18 32.55 444.63 47.73 448.97C62.94 453.31 80.35 455.5 100.04 455.5C117.83 455.5 134.15 453.11 148.98 448.33C156.24 445.99 162.99 443.18 169.25 439.9L220.21 368.27C220.68 364.24 220.93 360.11 220.93 355.86" fill="#2E2E2E"/>
<path d="M960 0H1088L1023.57 92L960 0Z" fill="#E6FF00"/>
<path d="M620.53 134.22H620.52V134.23L496.74 308.21V164.9V134.22H401.37H401.25V134.4L182.06 442.48H299.26L401.25 299.12V442.44L401.22 442.48H401.25V607.16L496.74 472.94L518.41 442.48L620.52 298.95V442.48H716.02V164.73V134.22V32.9V0L620.53 134.22Z" fill="#2E2E2E"/>
</svg>
